<svg width="279" height="196" viewBox="0 0 279 196" fill="none" xmlns="http://www.w3.org/2000/svg">
<path fill-rule="evenodd" clip-rule="evenodd" d="M8.93251 60.7414C12.7393 50.1682 22.5227 35.6293 33.0757 27.4704C18.6539 40.4115 9.19371 56.9894 4.87751 74.6435C5.71891 69.5017 8.16221 62.8953 8.93251 60.7414ZM143.78 12.1222C84.1838 -23.7166 0.0283112 24.96 1.12483e-05 92.0935C-0.00708875 108.984 3.34731 121.456 9.10671 130.142C26.6079 156.534 66.3175 147.962 101.404 122.143C99.3056 119.441 99.6997 119.966 97.846 117.472C70.3227 144.491 30.4314 157.811 15.5924 109.445C14.813 105.981 14.2635 102.815 13.9158 99.4715C13.6665 97.0844 14.1444 92.7671 13.4883 90.6355C13.2731 89.9235 13.2333 89.8764 12.6607 90.3723C11.7515 91.1655 12.8005 101.195 13.0908 102.926C13.9277 107.972 15.2083 112.79 17.0152 117.682L17.6543 119.417C10.0312 107.618 7.45951 90.9687 11.9924 74.6412C8.04661 85.4507 8.61731 90.585 5.85521 101.939C4.24291 90.4325 7.63271 79.4511 10.6493 71.2369C13.5377 60.5624 17.8179 51.8091 24.6268 42.9457C50.0847 8.27135 107.133 -16.4064 141.912 16.8933C147.358 21.8893 148.135 14.3228 143.78 12.1222ZM4.75031 71.3801C3.84341 74.6496 3.13531 77.9363 2.61841 81.24C2.40541 82.9274 2.20471 84.5699 2.02241 86.1726C1.77811 86.3994 1.53911 86.684 1.31311 87.0241C1.52571 85.3952 1.78461 83.6549 2.10021 81.7616C2.68041 77.3726 3.63281 73.1295 4.99701 69.3876C4.54741 71.0089 4.14831 72.6395 3.80101 74.2712C4.09281 73.2804 4.40841 72.3146 4.75031 71.3801ZM39.4188 23.0665C25.3215 33.4509 15.3128 47.4809 9.79761 62.8839C11.0342 58.3651 13.8341 52.6665 14.7265 50.8067C19.1212 41.6799 29.2271 29.4967 39.4188 23.0665Z" fill="#005F8E"/>
<path fill-rule="evenodd" clip-rule="evenodd" d="M14.7265 50.8067C13.8342 52.6664 11.0342 58.3651 9.79761 62.8838C15.3128 47.4809 25.3215 33.4509 39.4189 23.0665C29.2271 29.4967 19.1211 41.68 14.7265 50.8067Z" fill="#005F8E"/>
<path fill-rule="evenodd" clip-rule="evenodd" d="M13.2559 64.2672C12.5443 66.2563 11.6152 68.6085 10.6493 71.2368C10.2434 72.7377 9.88222 74.2548 9.65012 75.6573C10.5957 71.7988 11.7971 67.9908 13.2559 64.2672Z" fill="#005F8E"/>
<path fill-rule="evenodd" clip-rule="evenodd" d="M2.10021 81.7614C1.78461 83.6549 1.52571 85.3952 1.31311 87.024C1.53911 86.6839 1.77811 86.3994 2.02241 86.1727C2.20471 84.5699 2.40541 82.9273 2.61831 81.2399C3.13531 77.9364 3.84351 74.6497 4.75041 71.3802C4.40841 72.3146 4.09281 73.2804 3.80101 74.2712C4.14831 72.6393 4.54741 71.009 4.99701 69.3875C3.63281 73.1295 2.68041 77.3725 2.10021 81.7614Z" fill="#005F8E"/>
<path fill-rule="evenodd" clip-rule="evenodd" d="M8.93251 60.7414C8.16231 62.8952 5.71891 69.5016 4.87751 74.6434C9.19361 56.9894 18.6539 40.4114 33.0756 27.4703C22.5227 35.6292 12.7392 50.1682 8.93251 60.7414Z" fill="#005F8E"/>
<path fill-rule="evenodd" clip-rule="evenodd" d="M16.4759 60.3187C15.782 62.2519 13.5933 68.1743 12.8396 72.7834C16.7065 56.9542 25.1894 42.0894 38.1221 30.4875C28.6588 37.8027 19.8859 50.8381 16.4759 60.3187Z" fill="#005F8E"/>
<path fill-rule="evenodd" clip-rule="evenodd" d="M18.3805 64.3445C17.6869 66.2755 15.4986 72.2005 14.7441 76.8119C18.6137 60.9808 27.0936 46.1186 40.0274 34.5117C30.566 41.8285 21.7905 54.8643 18.3805 64.3445Z" fill="#005F8E"/>
<path fill-rule="evenodd" clip-rule="evenodd" d="M62.2596 17.9775C59.3064 19.282 56.5647 20.8246 53.8594 22.6985C52.7905 23.438 47.3882 27.0598 46.5552 28.9556C46.4913 29.1026 46.4472 29.2202 46.4216 29.3087C49.4984 25.9438 53.2489 23.3047 58.6684 20.5328C60.6645 19.5106 62.5123 18.6765 64.5023 17.9381C65.9227 17.4092 68.6342 17.0224 69.8352 16.2886C70.2366 16.0412 70.2573 16.0117 69.8639 15.7402C69.237 15.309 63.2733 17.5272 62.2596 17.9775Z" fill="#005F8E"/>
<path fill-rule="evenodd" clip-rule="evenodd" d="M106.91 119.691C111.591 116.083 121.333 110.457 127.186 104.779L122.702 99.779C46.7652 160.528 43.2985 92.9423 69.4379 72.1298C77.2258 65.9295 87.6468 63.8775 99.5616 70.6135C109.773 76.3874 120.169 88.2269 129.108 99.7815C138.708 112.196 150.497 126.99 164.784 135.946C173.214 141.23 181.873 146.805 197.747 149.238C241.439 154.238 268.741 90.2145 216.128 73.0573C248.283 96.5191 238.165 128.349 209.617 132.28V135.397H203.167V132.68C200.17 132.654 197.018 132.348 193.73 131.721C176.315 128.397 154.01 111.691 133.012 88.825C123.017 77.9436 111.405 66.5696 100.109 61.2195V64.3061H93.659V58.6794C82.2921 55.0958 72.0049 56.5963 63.4301 61.1862C43.4042 71.9025 32.7025 99.4524 39.318 118.372C45.7039 136.632 66.9839 150.47 106.91 119.691ZM177.771 129.199H182.341V133.769H177.771V129.199ZM191.889 132.461H196.458V137.031H191.889V132.461ZM106.497 68.4294H110.223V72.1544H106.497V68.4294Z" fill="#005F8E"/>
<path fill-rule="evenodd" clip-rule="evenodd" d="M269.706 134.751C265.899 145.324 256.116 159.863 245.563 168.022C259.985 155.081 269.445 138.503 273.761 120.849C272.92 125.991 270.476 132.597 269.706 134.751ZM134.859 183.37C194.455 219.209 278.61 170.532 278.639 103.399C278.646 86.5084 275.291 74.0361 269.532 65.3506C252.031 38.9583 212.321 47.5306 177.234 73.3496C179.333 76.0508 178.939 75.5261 180.793 78.0204C208.316 51.0014 248.207 37.6814 263.046 86.0476C263.826 89.5112 264.375 92.6769 264.723 96.0207C264.972 98.4078 264.494 102.725 265.15 104.857C265.365 105.569 265.405 105.616 265.978 105.12C266.887 104.327 265.838 94.297 265.548 92.5659C264.711 87.5197 263.43 82.7019 261.623 77.8105L260.984 76.0749C268.607 87.8737 271.179 104.524 266.646 120.851C270.592 110.042 270.021 104.907 272.783 93.5536C274.396 105.06 271.006 116.041 267.989 124.255C265.101 134.93 260.821 143.683 254.012 152.547C228.554 187.221 171.505 211.899 136.726 178.599C131.281 173.603 130.503 181.169 134.859 183.37ZM273.888 124.112C274.795 120.843 275.503 117.556 276.02 114.252C276.233 112.565 276.434 110.922 276.616 109.32C276.86 109.093 277.099 108.808 277.325 108.468C277.113 110.097 276.854 111.837 276.538 113.731C275.958 118.12 275.006 122.363 273.642 126.105C274.091 124.483 274.49 122.853 274.838 121.221C274.546 122.212 274.23 123.178 273.888 124.112ZM239.22 172.426C253.317 162.041 263.326 148.011 268.841 132.608C267.604 137.127 264.804 142.826 263.912 144.686C259.517 153.812 249.411 165.996 239.22 172.426Z" fill="#005F8E"/>
<path fill-rule="evenodd" clip-rule="evenodd" d="M263.912 144.686C264.804 142.826 267.604 137.127 268.841 132.608C263.326 148.011 253.317 162.041 239.22 172.426C249.411 165.996 259.517 153.812 263.912 144.686Z" fill="#005F8E"/>
<path fill-rule="evenodd" clip-rule="evenodd" d="M265.383 131.225C266.094 129.236 267.023 126.884 267.989 124.255C268.395 122.754 268.756 121.237 268.988 119.835C268.043 123.694 266.841 127.501 265.383 131.225Z" fill="#005F8E"/>
<path fill-rule="evenodd" clip-rule="evenodd" d="M276.538 113.731C276.854 111.837 277.113 110.097 277.325 108.468C277.099 108.808 276.86 109.093 276.616 109.32C276.434 110.922 276.233 112.565 276.02 114.252C275.503 117.556 274.795 120.843 273.888 124.112C274.23 123.178 274.546 122.212 274.838 121.221C274.49 122.853 274.091 124.483 273.642 126.105C275.006 122.363 275.958 118.12 276.538 113.731Z" fill="#005F8E"/>
<path fill-rule="evenodd" clip-rule="evenodd" d="M269.706 134.751C270.476 132.597 272.92 125.991 273.761 120.849C269.445 138.503 259.985 155.081 245.563 168.022C256.116 159.863 265.899 145.324 269.706 134.751Z" fill="#005F8E"/>
<path fill-rule="evenodd" clip-rule="evenodd" d="M262.163 135.174C262.857 133.24 265.045 127.318 265.799 122.709C261.932 138.538 253.449 153.403 240.516 165.005C249.98 157.69 258.753 144.654 262.163 135.174Z" fill="#005F8E"/>
<path fill-rule="evenodd" clip-rule="evenodd" d="M260.258 131.148C260.952 129.217 263.14 123.292 263.894 118.68C260.025 134.511 251.545 149.374 238.611 160.981C248.072 153.664 256.848 140.628 260.258 131.148Z" fill="#005F8E"/>
<path fill-rule="evenodd" clip-rule="evenodd" d="M216.379 177.515C219.332 176.21 222.074 174.668 224.779 172.794C225.848 172.054 231.25 168.432 232.083 166.537C232.147 166.39 232.191 166.272 232.217 166.184C229.14 169.548 225.39 172.188 219.97 174.96C217.974 175.982 216.126 176.816 214.136 177.554C212.716 178.083 210.004 178.47 208.803 179.204C208.402 179.451 208.381 179.481 208.775 179.752C209.402 180.183 215.365 177.965 216.379 177.515Z" fill="#005F8E"/>
<path fill-rule="evenodd" clip-rule="evenodd" d="M105.909 56.9695H112.358V63.4193H105.909V56.9695Z" fill="#005F8E"/>
<path fill-rule="evenodd" clip-rule="evenodd" d="M189.718 120.948H196.168V127.398H189.718V120.948Z" fill="#005F8E"/>
<path fill-rule="evenodd" clip-rule="evenodd" d="M201.619 122.389H205.345V126.114H201.619V122.389Z" fill="#005F8E"/>
<path fill-rule="evenodd" clip-rule="evenodd" d="M116.449 64.8087H120.175V68.5338H116.449V64.8087Z" fill="#005F8E"/>
<path fill-rule="evenodd" clip-rule="evenodd" d="M169.991 186.828H176.441V193.278H169.991V186.828Z" fill="#005F8E"/>
<path fill-rule="evenodd" clip-rule="evenodd" d="M98.686 52.3353H102.411V56.0603H98.686V52.3353Z" fill="#005F8E"/>
<path fill-rule="evenodd" clip-rule="evenodd" d="M181.63 189.219H185.355V192.944H181.63V189.219Z" fill="#005F8E"/>
<path fill-rule="evenodd" clip-rule="evenodd" d="M164.21 182.506H167.935V186.231H164.21V182.506Z" fill="#005F8E"/>
<path fill-rule="evenodd" clip-rule="evenodd" d="M206.459 66.7336H210.184V70.4586H206.459V66.7336Z" fill="#005F8E"/>
<path fill-rule="evenodd" clip-rule="evenodd" d="M180.21 118.529H183.935V122.254H180.21V118.529Z" fill="#005F8E"/>
</svg>
